<svg width="1440" height="204" viewBox="0 0 1440 204" fill="none" xmlns="http://www.w3.org/2000/svg">
<path d="M-43.2127 220.592C-43.2127 220.592 36.6404 77.2135 151.708 -5.38872C271.217 -91.1796 593.201 -168.205 593.201 -168.205" stroke="black" strokeOpacity="0.08" strokeWidth="40"/>
<path d="M85.6266 228.656C85.6266 228.656 165.48 85.2774 280.547 2.67524C400.057 -83.1156 722.04 -160.141 722.04 -160.141" stroke="black" strokeOpacity="0.08" strokeWidth="40"/>
<path d="M214.466 236.719C214.466 236.719 294.319 93.3407 409.387 10.7385C528.896 -75.0524 850.88 -152.078 850.88 -152.078" stroke="black" strokeOpacity="0.08" strokeWidth="40"/>
<path d="M343.305 244.783C343.305 244.783 423.158 101.404 538.226 18.8022C657.736 -66.9887 979.719 -144.014 979.719 -144.014" stroke="black" strokeOpacity="0.08" strokeWidth="40"/>
<path d="M472.145 252.847C472.145 252.847 551.998 109.468 667.065 26.8657C786.575 -58.9252 1108.56 -135.951 1108.56 -135.951" stroke="black" strokeOpacity="0.08" strokeWidth="40"/>
<path d="M600.984 260.91C600.984 260.91 680.837 117.531 795.905 34.9289C915.414 -50.8619 1237.4 -127.887 1237.4 -127.887" stroke="black" strokeOpacity="0.08" strokeWidth="40"/>
<path d="M729.823 268.974C729.823 268.974 809.677 125.595 924.744 42.9926C1044.25 -42.7982 1366.24 -119.824 1366.24 -119.824" stroke="black" strokeOpacity="0.08" strokeWidth="40"/>
<path d="M858.663 277.037C858.663 277.037 938.516 133.659 1053.58 51.0563C1173.09 -34.7345 1495.08 -111.76 1495.08 -111.76" stroke="black" strokeOpacity="0.08" strokeWidth="40"/>
<path d="M987.502 285.1C987.502 285.1 1067.36 141.722 1182.42 59.1196C1301.93 -26.6713 1623.92 -103.697 1623.92 -103.697" stroke="black" strokeOpacity="0.08" strokeWidth="40"/>
<path d="M1116.34 293.164C1116.34 293.164 1196.19 149.785 1311.26 67.1828C1430.77 -18.608 1752.75 -95.6334 1752.75 -95.6334" stroke="black" strokeOpacity="0.08" strokeWidth="40"/>
<path d="M1245.18 301.228C1245.18 301.228 1325.03 157.849 1440.1 75.2468C1559.61 -10.5441 1881.59 -87.5695 1881.59 -87.5695" stroke="black" strokeOpacity="0.08" strokeWidth="40"/>
<path d="M1374.02 309.29C1374.02 309.29 1453.87 165.912 1568.94 83.3095C1688.45 -2.48133 2010.43 -79.5067 2010.43 -79.5067" stroke="black" strokeOpacity="0.08" strokeWidth="40"/>
</svg>
